<svg id="Layer_1" data-name="Layer 1" xmlns="http://www.w3.org/2000/svg" viewBox="0 0 42.78 47.79"><defs><style>.cls-1{fill:#da4538;}.cls-2{fill:#1a1a1a;}.cls-3{fill:#fea11c;}.cls-4{fill:#00000a;}</style></defs><title>1</title><path class="cls-1" d="M31.23,14.4a13.09,13.09,0,0,0-26.18,0l0,9.9H9.59V14.37a8.54,8.54,0,0,1,17.07,0l.06,9,4.6-.06Z" transform="translate(-3.09 -1.11)"/><path class="cls-2" d="M9.59,24.54H5a.29.29,0,0,1-.18-.07.27.27,0,0,1-.08-.19l0-9.9A13.32,13.32,0,0,1,18.14,1.11h0A13.33,13.33,0,0,1,31.49,14.4l.1,8.94a.24.24,0,0,1-.07.18.25.25,0,0,1-.18.08l-4.61,0a.21.21,0,0,1-.18-.07.25.25,0,0,1-.08-.18l-.06-9A8.11,8.11,0,0,0,24,8.57a8.3,8.3,0,0,0-5.84-2.42h0a8.27,8.27,0,0,0-8.28,8.22v9.91A.26.26,0,0,1,9.59,24.54ZM5.29,24h4V14.37a8.78,8.78,0,0,1,8.8-8.73h0a8.77,8.77,0,0,1,8.78,8.75L27,23.13l4.08,0L31,14.4h0a12.66,12.66,0,0,0-3.75-9,12.79,12.79,0,0,0-9.07-3.76h0A12.82,12.82,0,0,0,5.3,14.37Z" transform="translate(-3.09 -1.11)"/><path class="cls-3" d="M4,23.32H32.25a.62.62,0,0,1,.62.62V34.19A14.45,14.45,0,0,1,18.43,48.63h-.63A14.45,14.45,0,0,1,3.35,34.19V23.94A.62.62,0,0,1,4,23.32Z" transform="translate(-3.05 -1.13) rotate(0.07)"/><path class="cls-2" d="M19.05,48.89H17.16A14.1,14.1,0,0,1,3.09,34.79V23.9a.81.81,0,0,1,.26-.6.84.84,0,0,1,.6-.25H4l28.34,0a.85.85,0,0,1,.85.86l0,10.88A14.09,14.09,0,0,1,19.05,48.89Zm0-.51h0A13.59,13.59,0,0,0,32.62,34.82V23.93a.33.33,0,0,0-.1-.23.31.31,0,0,0-.24-.1L4,23.56H4a.35.35,0,0,0-.24.1.37.37,0,0,0-.1.24V34.79A13.55,13.55,0,0,0,17.16,48.37Z" transform="translate(-3.09 -1.11)"/><path class="cls-2" d="M18,43.63h0a3.34,3.34,0,0,1-2.33-1,3.27,3.27,0,0,1-1-2.32V35.79a5.17,5.17,0,0,1,3.4-9.1h0a5.17,5.17,0,0,1,3.2,9.25v4.41A3.31,3.31,0,0,1,18,43.63Zm.1-16.43a4.68,4.68,0,0,0-4.69,4.66,4.61,4.61,0,0,0,1.71,3.6l.1.08v4.8A2.8,2.8,0,0,0,18,43.11h0a2.78,2.78,0,0,0,2.78-2.76V35.68l.1-.08a4.67,4.67,0,0,0,1.89-3.73,4.59,4.59,0,0,0-1.37-3.3,4.66,4.66,0,0,0-3.31-1.37ZM18,40.53h0a.83.83,0,0,1-.83-.83V34.62l-.38-.23a2.43,2.43,0,0,1-1.21-2.13,2.49,2.49,0,0,1,2.49-2.48h0a2.48,2.48,0,0,1,1.76.73,2.45,2.45,0,0,1,.74,1.76,2.53,2.53,0,0,1-1.34,2.2l-.42.22v5A.83.83,0,0,1,18,40.53Zm.08-10.23a2,2,0,0,0-2,2,2,2,0,0,0,1,1.68l.63.38v5.38A.3.3,0,0,0,18,40h0a.3.3,0,0,0,.31-.3V34.37L19,34a2,2,0,0,0-.92-3.71Z" transform="translate(-3.09 -1.11)"/><path class="cls-4" d="M21.27,32.07a3.16,3.16,0,1,0-4.79,2.68v5.33a1.56,1.56,0,0,0,3.11,0V34.84A3.12,3.12,0,0,0,21.27,32.07Z" transform="translate(-3.09 -1.11)"/><path class="cls-2" d="M37.19,20.72a.54.54,0,0,1-.49-.35.52.52,0,0,1,.32-.66l6.78-2.35a.52.52,0,0,1,.34,1l-6.78,2.35A.51.51,0,0,1,37.19,20.72Z" transform="translate(-3.09 -1.11)"/><path class="cls-2" d="M45.36,24.26H38a.52.52,0,0,1,0-1h7.35a.52.52,0,0,1,0,1Z" transform="translate(-3.09 -1.11)"/><path class="cls-2" d="M44,29.84a.36.36,0,0,1-.14,0L37.56,28a.51.51,0,0,1-.35-.63.51.51,0,0,1,.64-.36l6.26,1.79a.51.51,0,0,1-.14,1Z" transform="translate(-3.09 -1.11)"/></svg>