<svg id="Layer_1" data-name="Layer 1" xmlns="http://www.w3.org/2000/svg" viewBox="0 0 49.36 50"><defs><style>.cls-1{fill:#1a1a1a;}.cls-2{fill:#fea11c;}.cls-3{fill:#da4538;}.cls-4{fill:#bcbcc9;}.cls-5{fill:#7474a8;}</style></defs><title>2</title><path class="cls-1" d="M25.14,4.7a.48.48,0,0,1-.48-.49V.48A.48.48,0,0,1,25.14,0a.49.49,0,0,1,.49.48V4.21A.49.49,0,0,1,25.14,4.7Z" transform="translate(-0.32)"/><path class="cls-1" d="M39.78,10.75a.49.49,0,0,1-.34-.14.49.49,0,0,1,0-.68L42,7.27a.48.48,0,1,1,.69.67L40.12,10.6A.46.46,0,0,1,39.78,10.75Z" transform="translate(-0.32)"/><path class="cls-1" d="M45.54,21.46a.49.49,0,0,1-.47-.39.48.48,0,0,1,.38-.57l3.65-.76a.47.47,0,0,1,.57.37.49.49,0,0,1-.37.58l-3.66.76Z" transform="translate(-0.32)"/><path class="cls-1" d="M46.39,38a.5.5,0,0,1-.24-.06l-3.23-1.86a.47.47,0,0,1-.18-.66.49.49,0,0,1,.66-.18l3.23,1.86a.49.49,0,0,1,.18.66A.47.47,0,0,1,46.39,38Z" transform="translate(-0.32)"/><path class="cls-1" d="M3.69,38a.48.48,0,0,1-.42-.24.49.49,0,0,1,.18-.66L6.67,35.2a.49.49,0,0,1,.66.18.48.48,0,0,1-.17.66L3.94,37.92A.57.57,0,0,1,3.69,38Z" transform="translate(-0.32)"/><path class="cls-1" d="M4.47,21.81H4.39L.72,21.14a.48.48,0,0,1-.39-.57.47.47,0,0,1,.56-.38l3.67.66a.48.48,0,0,1-.09,1Z" transform="translate(-0.32)"/><path class="cls-1" d="M10.65,10.46a.47.47,0,0,1-.35-.15L7.72,7.62a.49.49,0,0,1,0-.69.48.48,0,0,1,.68,0L11,9.64a.49.49,0,0,1,0,.68A.47.47,0,0,1,10.65,10.46Z" transform="translate(-0.32)"/><path class="cls-2" d="M39,20.73a14.07,14.07,0,0,0-28.13,0c0,8.7,4.86,7.43,7.26,16.23a1.76,1.76,0,0,0,1.7,1.3H30A1.76,1.76,0,0,0,31.7,37C34.1,28.17,39,29.42,39,20.73Z" transform="translate(-0.32)"/><path class="cls-1" d="M30,38.5H19.79A2,2,0,0,1,17.86,37a18,18,0,0,0-4-7.52c-1.74-2.1-3.24-3.92-3.24-8.78a14.31,14.31,0,0,1,28.61,0c0,4.85-1.5,6.67-3.24,8.78a18,18,0,0,0-4,7.52A2,2,0,0,1,30,38.5ZM24.9,6.91A13.84,13.84,0,0,0,11.08,20.73c0,4.69,1.44,6.44,3.12,8.47a18.31,18.31,0,0,1,4.13,7.7A1.52,1.52,0,0,0,19.79,38H30a1.53,1.53,0,0,0,1.47-1.12,18.27,18.27,0,0,1,4.12-7.7,11.11,11.11,0,0,0,3.12-8.47A13.83,13.83,0,0,0,24.9,6.91Z" transform="translate(-0.32)"/><path class="cls-3" d="M31.2,22.16a2.81,2.81,0,0,0-3.42.63A6.52,6.52,0,0,0,26.7,26.6l-1.8,0-1.8,0A6.58,6.58,0,0,0,22,22.79a2.8,2.8,0,0,0-3.42-.63,3,3,0,0,0-1.72,3.27c.47,2.43,2.16,2.64,4.89,2.63l.71,10.16a.75.75,0,0,0,.77.67.78.78,0,0,0,.49-.25.67.67,0,0,0,.17-.52L23.19,28c1,0,2.36,0,3.41,0l-.71,10.09a.72.72,0,0,0,.66.77h.05a.73.73,0,0,0,.72-.67L28,28.06c2.73,0,4.41-.2,4.88-2.63A3,3,0,0,0,31.2,22.16Zm.31,3c-.24,1.25-.76,1.48-3.38,1.47a5.47,5.47,0,0,1,.75-2.91,1.39,1.39,0,0,1,1.7-.25A1.54,1.54,0,0,1,31.51,25.15Zm-9.85,1.47c-2.62,0-3.14-.23-3.38-1.47a1.56,1.56,0,0,1,.93-1.69,1.87,1.87,0,0,1,.75-.18,1.2,1.2,0,0,1,.95.43A5.47,5.47,0,0,1,21.66,26.62Z" transform="translate(-0.32)"/><path class="cls-1" d="M26.6,39.13h-.07a1,1,0,0,1-.88-1l.69-9.83H23.45l.7,9.83a1,1,0,0,1-.24.7,1,1,0,0,1-1.68-.56l-.7-9.94c-2.56,0-4.4-.26-4.9-2.83a3.24,3.24,0,0,1,1.86-3.53,3,3,0,0,1,3.71.7,6.51,6.51,0,0,1,1.12,3.71c1,0,2.17,0,3.15,0a6.51,6.51,0,0,1,1.12-3.71,3,3,0,0,1,3.71-.7h0a3.23,3.23,0,0,1,1.86,3.53c-.5,2.57-2.33,2.83-4.88,2.83h0l-.7,9.94A1,1,0,0,1,26.6,39.13ZM21.76,27.81A.25.25,0,0,1,22,28l.71,10.16a.5.5,0,0,0,.52.44.43.43,0,0,0,.32-.16.47.47,0,0,0,.11-.34L23,28.05a.26.26,0,0,1,.07-.18.21.21,0,0,1,.17-.08H26.6a.25.25,0,0,1,.18.08.3.3,0,0,1,.06.18l-.71,10.09a.46.46,0,0,0,.44.5.48.48,0,0,0,.51-.44L27.79,28a.24.24,0,0,1,.25-.22h.19c2.8,0,4.05-.37,4.45-2.44a2.73,2.73,0,0,0-1.58-3A2.58,2.58,0,0,0,28,23a6.36,6.36,0,0,0-1,3.66.25.25,0,0,1-.25.23l-1.79,0-1.8,0a.25.25,0,0,1-.25-.23,6.34,6.34,0,0,0-1-3.66,2.58,2.58,0,0,0-3.14-.57,2.75,2.75,0,0,0-1.58,3c.4,2.07,1.65,2.44,4.47,2.44h.18Zm-.41-.95c-2.3,0-3-.25-3.31-1.66a1.79,1.79,0,0,1,1.06-2A2.07,2.07,0,0,1,20,23a1.43,1.43,0,0,1,1.14.52,5.67,5.67,0,0,1,.8,3,.28.28,0,0,1-.06.18.25.25,0,0,1-.18.08ZM20,23.53a1.54,1.54,0,0,0-.65.15,1.31,1.31,0,0,0-.79,1.42c.19,1,.49,1.28,2.83,1.28h0a4.79,4.79,0,0,0-.67-2.51A1,1,0,0,0,20,23.53Zm8.41,3.33c-.14,0-.31,0-.41-.08a.23.23,0,0,1-.07-.18,5.67,5.67,0,0,1,.8-3,1.64,1.64,0,0,1,2-.32,1.79,1.79,0,0,1,1.06,2h0C31.47,26.63,30.77,26.86,28.37,26.86Zm1.46-3.33a1,1,0,0,0-.77.34,4.79,4.79,0,0,0-.67,2.51c2.39,0,2.69-.27,2.88-1.28h0a1.31,1.31,0,0,0-.79-1.42A1.55,1.55,0,0,0,29.83,23.53Z" transform="translate(-0.32)"/><rect class="cls-4" x="18.42" y="38.26" width="13.39" height="3.04" rx="1.46" ry="1.46" transform="translate(49.91 79.56) rotate(180)"/><path class="cls-1" d="M30.29,41.54H19.94a1.76,1.76,0,0,1,0-3.52H30.29a1.76,1.76,0,1,1,0,3.52Zm-10.35-3a1.28,1.28,0,1,0,0,2.56H30.29a1.28,1.28,0,0,0,0-2.56Z" transform="translate(-0.32)"/><rect class="cls-4" x="18.42" y="41.3" width="13.39" height="3.04" rx="1.46" ry="1.46" transform="translate(49.91 85.63) rotate(-180)"/><path class="cls-1" d="M30.29,44.58H19.94a1.76,1.76,0,0,1,0-3.52H30.29a1.76,1.76,0,0,1,0,3.52Zm-10.35-3a1.28,1.28,0,1,0,0,2.55H30.29a1.28,1.28,0,0,0,0-2.55Z" transform="translate(-0.32)"/><path class="cls-4" d="M19.28,44.34H30.09a0,0,0,0,1,0,0v.1a2.24,2.24,0,0,1-2.24,2.24H21.52a2.24,2.24,0,0,1-2.24-2.24v-.1A0,0,0,0,1,19.28,44.34Z"/><path class="cls-1" d="M28.38,46.91H21.64a2.28,2.28,0,0,1-2.28-2.28v-.29a.25.25,0,0,1,.24-.25H30.41a.24.24,0,0,1,.24.25v.29A2.28,2.28,0,0,1,28.38,46.91Zm-8.53-2.33v.05a1.8,1.8,0,0,0,1.79,1.8h6.74a1.8,1.8,0,0,0,1.79-1.8v-.05Z" transform="translate(-0.32)"/><path class="cls-5" d="M25.14,46.67H21.61c0,1.95,2,3.09,3.54,3.09s3.53-1.14,3.53-3.09Z" transform="translate(-0.32)"/><path class="cls-1" d="M25.15,50c-1.55,0-3.78-1.19-3.78-3.33a.24.24,0,0,1,.24-.24h7.07a.24.24,0,0,1,.24.24C28.92,48.81,26.69,50,25.15,50Zm-3.29-3.09c.16,1.68,2,2.61,3.29,2.61s3.11-.93,3.27-2.61Z" transform="translate(-0.32)"/></svg>