<svg id="Layer_1" data-name="Layer 1" xmlns="http://www.w3.org/2000/svg" viewBox="0 0 50 49.48"><defs><style>.cls-1{fill:#1a1a1a;}.cls-2{fill:#da4538;}.cls-3{fill:#fea11c;}</style></defs><title>3</title><path class="cls-1" d="M3.22,25.54H.54a.54.54,0,1,1,0-1.08H3.22a.54.54,0,0,1,0,1.08Z" transform="translate(0 -0.26)"/><path class="cls-1" d="M41.94,25.54H37.1a.54.54,0,0,1,0-1.08h4.84a.54.54,0,0,1,0,1.08Zm-9.68,0H27.42a.54.54,0,1,1,0-1.08h4.84a.54.54,0,1,1,0,1.08Zm-9.68,0H17.74a.54.54,0,1,1,0-1.08h4.84a.54.54,0,0,1,0,1.08Zm-9.68,0H8.06a.54.54,0,0,1,0-1.08H12.9a.54.54,0,0,1,0,1.08Z" transform="translate(0 -0.26)"/><path class="cls-1" d="M49.46,25.54H46.78a.54.54,0,0,1,0-1.08h2.68a.54.54,0,1,1,0,1.08Z" transform="translate(0 -0.26)"/><rect class="cls-2" x="21.69" y="0.27" width="6.75" height="48.94"/><path class="cls-1" d="M28.43,49.74H21.69a.27.27,0,0,1-.27-.27V.53a.27.27,0,0,1,.27-.27h6.74a.27.27,0,0,1,.27.27V49.47A.27.27,0,0,1,28.43,49.74ZM22,49.2h6.21V.8H22Z" transform="translate(0 -0.26)"/><rect class="cls-3" x="10.53" y="7.99" width="5.36" height="33.71"/><path class="cls-1" d="M15.88,42.24H10.53a.27.27,0,0,1-.27-.27V8.26A.27.27,0,0,1,10.53,8h5.35a.27.27,0,0,1,.27.27V42A.27.27,0,0,1,15.88,42.24Zm-5.09-.54h4.82V8.52H10.79Z" transform="translate(0 -0.26)"/><rect class="cls-3" x="34.11" y="7.93" width="5.36" height="33.83"/><path class="cls-1" d="M39.47,42.29H34.11a.27.27,0,0,1-.27-.26V8.2a.27.27,0,0,1,.27-.27h5.36a.27.27,0,0,1,.26.27V42A.26.26,0,0,1,39.47,42.29Zm-5.09-.53H39.2V8.46H34.38Z" transform="translate(0 -0.26)"/></svg>