<svg id="Layer_1" data-name="Layer 1" xmlns="http://www.w3.org/2000/svg" viewBox="0 0 50 47.25"><defs><style>.cls-1{fill:#fea11c;}.cls-2{fill:#1a1a1a;}.cls-3{fill:#fff;}.cls-4{fill:#538b48;}</style></defs><title>4</title><rect class="cls-1" x="7.5" y="0.27" width="35.3" height="28.83"/><path class="cls-2" d="M42.81,30.74H7.5a.27.27,0,0,1-.27-.27V1.64a.27.27,0,0,1,.27-.26H42.81a.26.26,0,0,1,.26.26V30.47A.27.27,0,0,1,42.81,30.74Zm-35-.53H42.54V1.91H7.77Z" transform="translate(0 -1.38)"/><rect class="cls-3" x="17.24" y="0.35" width="9.37" height="12.29"/><path class="cls-2" d="M26.61,14.28H17.24A.27.27,0,0,1,17,14V1.73a.27.27,0,0,1,.27-.27h9.37a.26.26,0,0,1,.26.27V14A.26.26,0,0,1,26.61,14.28Zm-9.11-.53h8.84V2H17.5Z" transform="translate(0 -1.38)"/><rect class="cls-2" x="29.82" y="19.78" width="1.05" height="4.57"/><rect class="cls-2" x="33.66" y="19.78" width="1.05" height="4.57"/><rect class="cls-2" x="37.35" y="19.78" width="1.05" height="4.57"/><rect class="cls-2" x="38.93" y="19.78" width="0.92" height="4.57"/><rect class="cls-2" x="31.41" y="19.78" width="0.53" height="4.57"/><rect class="cls-2" x="35.24" y="19.78" width="0.53" height="4.57"/><rect class="cls-2" x="36.3" y="19.78" width="0.53" height="4.57"/><rect class="cls-2" x="32.46" y="19.78" width="0.67" height="4.57"/><rect class="cls-4" x="7.5" y="40.63" width="35.3" height="6.35"/><path class="cls-2" d="M42.81,48.62H7.5a.27.27,0,0,1-.27-.26V42a.27.27,0,0,1,.27-.27H42.81a.27.27,0,0,1,.26.27v6.35A.26.26,0,0,1,42.81,48.62Zm-35-.53H42.54V42.28H7.77Z" transform="translate(0 -1.38)"/><path class="cls-2" d="M3.21,37H.53A.54.54,0,0,1,.53,36H3.21a.54.54,0,0,1,0,1.07Z" transform="translate(0 -1.38)"/><path class="cls-2" d="M42,37H37.11a.54.54,0,1,1,0-1.07H42A.54.54,0,0,1,42,37Zm-9.69,0H27.42a.54.54,0,0,1,0-1.07h4.84a.54.54,0,1,1,0,1.07Zm-9.68,0H17.74a.54.54,0,1,1,0-1.07h4.84a.54.54,0,0,1,0,1.07Zm-9.69,0H8.05a.54.54,0,0,1,0-1.07h4.84a.54.54,0,1,1,0,1.07Z" transform="translate(0 -1.38)"/><path class="cls-2" d="M49.47,37H46.79a.54.54,0,0,1,0-1.07h2.68a.54.54,0,0,1,0,1.07Z" transform="translate(0 -1.38)"/></svg>