<svg id="Layer_1" data-name="Layer 1" xmlns="http://www.w3.org/2000/svg" viewBox="0 0 50 24.7"><defs><style>.cls-1{fill:#7474a8;}.cls-2{fill:#1a1a1a;}</style></defs><title>5</title><path class="cls-1" d="M37.65,12.93A12.08,12.08,0,0,0,27,19.37a.26.26,0,0,0,0,.3l3.12,3.59a.29.29,0,0,0,.26.08.27.27,0,0,0,.2-.19A7.3,7.3,0,0,1,45,25a7.31,7.31,0,0,1-12.2,5.42A33.64,33.64,0,0,1,27,23.7c-2.14-3-4.36-6.05-7.21-8.17A12.07,12.07,0,1,0,22.88,30.9a.27.27,0,0,0,0-.3L19.79,27a.25.25,0,0,0-.26-.09.28.28,0,0,0-.2.18A7.3,7.3,0,0,1,5,25a7.32,7.32,0,0,1,11.88-5.69c2.24,1.64,4.13,4.26,6.13,7a39.37,39.37,0,0,0,6.62,7.7,12.19,12.19,0,0,0,13.15,1.87,12.08,12.08,0,0,0-5.17-23Z" transform="translate(0 -12.65)"/><path class="cls-2" d="M12.35,37.35a12.35,12.35,0,1,1,7.64-22c2.88,2.15,5.1,5.24,7.26,8.23a33.5,33.5,0,0,0,5.68,6.67A7,7,0,0,0,44.68,25a7,7,0,0,0-13.83-1.78.54.54,0,0,1-.92.21L26.8,19.85a.55.55,0,0,1-.07-.6,12.35,12.35,0,1,1,2.77,15,39.53,39.53,0,0,1-6.67-7.75c-2-2.76-3.86-5.37-6.07-7A7,7,0,1,0,12.35,32a7.07,7.07,0,0,0,6.72-5,.54.54,0,0,1,.41-.36.51.51,0,0,1,.51.17l3.06,3.56a.54.54,0,0,1,.07.62A12.4,12.4,0,0,1,12.35,37.35Zm-.09-24.16A11.4,11.4,0,0,0,7.1,14.43,11.8,11.8,0,1,0,22.64,30.77l-3.06-3.56A7.57,7.57,0,0,1,4.77,25a7.59,7.59,0,0,1,12.32-5.9c2.26,1.65,4.17,4.29,6.18,7.09a38.92,38.92,0,0,0,6.57,7.65,11.92,11.92,0,0,0,12.87,1.83A11.8,11.8,0,1,0,27.21,19.5l3.12,3.58a7.56,7.56,0,1,1,2.25,7.55,34.47,34.47,0,0,1-5.77-6.77c-2.13-3-4.33-6-7.15-8.11A12.3,12.3,0,0,0,12.26,13.19Z" transform="translate(0 -12.65)"/></svg>