<svg id="Layer_1" data-name="Layer 1" xmlns="http://www.w3.org/2000/svg" viewBox="0 0 44.76 44.99"><defs><style>.cls-1{fill:#bcbcc9;}.cls-2{fill:#1a1a1a;}.cls-3{fill:#7474a8;}.cls-4{fill:#fea11c;}</style></defs><title>6</title><line class="cls-1" x1="22.38" y1="7.42" x2="22.38" y2="38.63"/><rect class="cls-2" x="21.83" y="7.42" width="1.1" height="31.21"/><line class="cls-1" x1="6.77" y1="22.5" x2="37.99" y2="22.5"/><rect class="cls-2" x="6.77" y="21.95" width="31.21" height="1.1"/><line class="cls-1" x1="5.22" y1="39.66" x2="39.54" y2="5.34"/><rect class="cls-2" x="1.56" y="24.46" width="48.53" height="1.1" transform="translate(-13.56 23.08) rotate(-45)"/><line class="cls-1" x1="39.54" y1="39.66" x2="5.22" y2="5.34"/><rect class="cls-2" x="25.27" y="0.74" width="1.1" height="48.53" transform="translate(-13.56 23.08) rotate(-45)"/><circle class="cls-3" cx="22.38" cy="7.42" r="3.82"/><path class="cls-2" d="M25.82,14a4.1,4.1,0,1,1,4.1-4.09A4.09,4.09,0,0,1,25.82,14Zm0-7.64a3.55,3.55,0,1,0,3.55,3.55A3.55,3.55,0,0,0,25.82,6.38Z" transform="translate(-3.44 -2.51)"/><circle class="cls-3" cx="22.38" cy="22.5" r="6.4"/><path class="cls-2" d="M25.82,31.68A6.67,6.67,0,1,1,32.49,25,6.67,6.67,0,0,1,25.82,31.68Zm0-12.79A6.12,6.12,0,1,0,31.94,25,6.13,6.13,0,0,0,25.82,18.89Z" transform="translate(-3.44 -2.51)"/><circle class="cls-3" cx="22.38" cy="38.63" r="3.82"/><path class="cls-2" d="M25.82,45.24a4.1,4.1,0,1,1,4.1-4.1A4.1,4.1,0,0,1,25.82,45.24Zm0-7.65a3.55,3.55,0,1,0,3.55,3.55A3.55,3.55,0,0,0,25.82,37.59Z" transform="translate(-3.44 -2.51)"/><circle class="cls-3" cx="6.77" cy="22.5" r="3.82"/><path class="cls-2" d="M10.22,29.1A4.1,4.1,0,1,1,14.31,25,4.1,4.1,0,0,1,10.22,29.1Zm0-7.64A3.55,3.55,0,1,0,13.76,25,3.55,3.55,0,0,0,10.22,21.46Z" transform="translate(-3.44 -2.51)"/><circle class="cls-3" cx="37.99" cy="22.5" r="3.82"/><path class="cls-2" d="M41.43,29.1A4.1,4.1,0,1,1,45.53,25,4.1,4.1,0,0,1,41.43,29.1Zm0-7.64A3.55,3.55,0,1,0,45,25,3.55,3.55,0,0,0,41.43,21.46Z" transform="translate(-3.44 -2.51)"/><circle class="cls-4" cx="5.28" cy="5.28" r="5.01"/><path class="cls-2" d="M8.72,13.07A5.28,5.28,0,1,1,14,7.79,5.29,5.29,0,0,1,8.72,13.07Zm0-10a4.73,4.73,0,1,0,4.74,4.73A4.73,4.73,0,0,0,8.72,3.06Z" transform="translate(-3.44 -2.51)"/><circle class="cls-4" cx="39.48" cy="5.28" r="5.01"/><path class="cls-2" d="M42.92,13.07A5.28,5.28,0,1,1,48.2,7.79,5.29,5.29,0,0,1,42.92,13.07Zm0-10a4.73,4.73,0,1,0,4.73,4.73A4.73,4.73,0,0,0,42.92,3.06Z" transform="translate(-3.44 -2.51)"/><circle class="cls-4" cx="5.28" cy="39.7" r="5.01"/><path class="cls-2" d="M8.72,47.49A5.28,5.28,0,1,1,14,42.21,5.29,5.29,0,0,1,8.72,47.49Zm0-10a4.73,4.73,0,1,0,4.74,4.73A4.73,4.73,0,0,0,8.72,37.48Z" transform="translate(-3.44 -2.51)"/><circle class="cls-4" cx="39.48" cy="39.7" r="5.01"/><path class="cls-2" d="M42.92,47.49a5.28,5.28,0,1,1,5.28-5.28A5.29,5.29,0,0,1,42.92,47.49Zm0-10a4.73,4.73,0,1,0,4.73,4.73A4.73,4.73,0,0,0,42.92,37.48Z" transform="translate(-3.44 -2.51)"/></svg>